<svg xmlns="http://www.w3.org/2000/svg" viewBox="0 0 100 100">
  <!-- 배경 원 -->
  <circle cx="50" cy="50" r="48" fill="#1a1a2e"/>
  
  <!-- 키보드 본체 -->
  <rect x="15" y="55" width="70" height="25" rx="4" fill="#2d3748"/>
  <rect x="17" y="57" width="66" height="21" rx="3" fill="#1a202c"/>
  
  <!-- 키보드 키들 - 상단 줄 -->
  <rect x="20" y="59" width="8" height="6" rx="1" fill="#4a5568"/>
  <rect x="30" y="59" width="8" height="6" rx="1" fill="#4a5568"/>
  <rect x="40" y="59" width="8" height="6" rx="1" fill="#00d4ff"/>
  <rect x="50" y="59" width="8" height="6" rx="1" fill="#4a5568"/>
  <rect x="60" y="59" width="8" height="6" rx="1" fill="#4a5568"/>
  <rect x="70" y="59" width="8" height="6" rx="1" fill="#4a5568"/>
  
  <!-- 키보드 키들 - 하단 줄 -->
  <rect x="20" y="67" width="8" height="6" rx="1" fill="#4a5568"/>
  <rect x="30" y="67" width="8" height="6" rx="1" fill="#00d4ff"/>
  <rect x="40" y="67" width="8" height="6" rx="1" fill="#4a5568"/>
  <rect x="50" y="67" width="8" height="6" rx="1" fill="#4a5568"/>
  <rect x="60" y="67" width="8" height="6" rx="1" fill="#00d4ff"/>
  <rect x="70" y="67" width="8" height="6" rx="1" fill="#4a5568"/>
  
  <!-- 스페이스바 -->
  <rect x="30" y="75" width="40" height="4" rx="1" fill="#718096"/>
  
  <!-- 타이핑 캐릭터 (귀여운 손가락들) -->
  <!-- 왼손 -->
  <ellipse cx="35" cy="45" rx="8" ry="6" fill="#ffd3b6"/>
  <circle cx="28" cy="42" r="3" fill="#ffd3b6"/>
  <circle cx="32" cy="38" r="3" fill="#ffd3b6"/>
  <circle cx="37" cy="37" r="3" fill="#ffd3b6"/>
  <circle cx="42" cy="40" r="2.5" fill="#ffd3b6"/>
  
  <!-- 오른손 -->
  <ellipse cx="65" cy="45" rx="8" ry="6" fill="#ffd3b6"/>
  <circle cx="72" cy="42" r="3" fill="#ffd3b6"/>
  <circle cx="68" cy="38" r="3" fill="#ffd3b6"/>
  <circle cx="63" cy="37" r="3" fill="#ffd3b6"/>
  <circle cx="58" cy="40" r="2.5" fill="#ffd3b6"/>
  
  <!-- 텍스트/단어 표시 -->
  <rect x="25" y="18" width="50" height="16" rx="3" fill="rgba(0,212,255,0.2)"/>
  <text x="50" y="29" text-anchor="middle" fill="#00d4ff" font-family="monospace" font-size="8" font-weight="bold">TYPE!</text>
  
  <!-- 타이핑 이펙트 선들 -->
  <line x1="22" y1="22" x2="18" y2="18" stroke="#f1c40f" stroke-width="2" stroke-linecap="round"/>
  <line x1="78" y1="22" x2="82" y2="18" stroke="#f1c40f" stroke-width="2" stroke-linecap="round"/>
  <line x1="50" y1="15" x2="50" y2="10" stroke="#2ecc71" stroke-width="2" stroke-linecap="round"/>
  
  <!-- 빛나는 효과 -->
  <circle cx="40" cy="62" r="1.5" fill="#fff" opacity="0.6"/>
  <circle cx="60" cy="70" r="1.5" fill="#fff" opacity="0.6"/>
</svg>
