<svg xmlns="http://www.w3.org/2000/svg" viewBox="0 0 100 100">
  <!-- 배경 (가판대) -->
  <rect x="10" y="60" width="80" height="35" rx="5" fill="#8B4513"/>
  <rect x="10" y="60" width="80" height="8" rx="3" fill="#A0522D"/>
  
  <!-- 붕어빵 틀 -->
  <rect x="20" y="45" width="60" height="25" rx="5" fill="#2d2d2d"/>
  <rect x="22" y="47" width="56" height="21" rx="3" fill="#1a1a1a"/>
  
  <!-- 붕어빵 1 -->
  <ellipse cx="35" cy="57" rx="10" ry="6" fill="#D4A574"/>
  <path d="M44,57 Q48,52 47,48 Q45,54 44,57 Q45,60 47,66 Q48,62 44,57" fill="#D4A574"/>
  <circle cx="40" cy="55" r="1.5" fill="#4a3728"/>
  
  <!-- 붕어빵 2 -->
  <ellipse cx="65" cy="57" rx="10" ry="6" fill="#C49A6C"/>
  <path d="M74,57 Q78,52 77,48 Q75,54 74,57 Q75,60 77,66 Q78,62 74,57" fill="#C49A6C"/>
  <circle cx="70" cy="55" r="1.5" fill="#4a3728"/>
  
  <!-- 연기 -->
  <ellipse cx="40" cy="38" rx="5" ry="3" fill="rgba(255,255,255,0.3)"/>
  <ellipse cx="55" cy="35" rx="6" ry="4" fill="rgba(255,255,255,0.2)"/>
  <ellipse cx="65" cy="40" rx="4" ry="2" fill="rgba(255,255,255,0.25)"/>
  
  <!-- 마스코트 얼굴 (붕어빵) -->
  <ellipse cx="50" cy="18" rx="20" ry="12" fill="#D4A574"/>
  <path d="M69,18 Q78,10 76,3 Q72,12 69,18 Q72,24 76,33 Q78,26 69,18" fill="#D4A574"/>
  <path d="M31,18 Q22,12 25,6 Q28,13 31,18" fill="#D4A574"/>
  
  <!-- 얼굴 -->
  <circle cx="43" cy="15" r="3" fill="white"/>
  <circle cx="57" cy="15" r="3" fill="white"/>
  <circle cx="44" cy="16" r="1.5" fill="#4a3728"/>
  <circle cx="58" cy="16" r="1.5" fill="#4a3728"/>
  
  <!-- 볼터치 -->
  <ellipse cx="38" cy="20" rx="3" ry="2" fill="rgba(255,150,150,0.4)"/>
  <ellipse cx="62" cy="20" rx="3" ry="2" fill="rgba(255,150,150,0.4)"/>
  
  <!-- 웃는 입 -->
  <path d="M 45 22 Q 50 27 55 22" stroke="#4a3728" stroke-width="2" fill="none" stroke-linecap="round"/>
  
  <!-- 요리사 모자 -->
  <ellipse cx="50" cy="5" rx="15" ry="4" fill="white"/>
  <rect x="40" y="2" width="20" height="5" fill="white"/>
</svg>