<svg xmlns="http://www.w3.org/2000/svg" viewBox="0 0 100 100">
  <defs>
    <radialGradient id="bubble1" cx="30%" cy="30%">
      <stop offset="0%" style="stop-color:#ff8787"/>
      <stop offset="70%" style="stop-color:#ff6b6b"/>
      <stop offset="100%" style="stop-color:#c0392b"/>
    </radialGradient>
    <radialGradient id="bubble2" cx="30%" cy="30%">
      <stop offset="0%" style="stop-color:#6ee6dd"/>
      <stop offset="70%" style="stop-color:#4ecdc4"/>
      <stop offset="100%" style="stop-color:#1abc9c"/>
    </radialGradient>
    <radialGradient id="bubble3" cx="30%" cy="30%">
      <stop offset="0%" style="stop-color:#fff089"/>
      <stop offset="70%" style="stop-color:#ffe66d"/>
      <stop offset="100%" style="stop-color:#f1c40f"/>
    </radialGradient>
    <radialGradient id="bubble4" cx="30%" cy="30%">
      <stop offset="0%" style="stop-color:#b8b3ff"/>
      <stop offset="70%" style="stop-color:#a29bfe"/>
      <stop offset="100%" style="stop-color:#6c5ce7"/>
    </radialGradient>
    <radialGradient id="bubble5" cx="30%" cy="30%">
      <stop offset="0%" style="stop-color:#ff9fc3"/>
      <stop offset="70%" style="stop-color:#fd79a8"/>
      <stop offset="100%" style="stop-color:#e84393"/>
    </radialGradient>
    <radialGradient id="bubble6" cx="30%" cy="30%">
      <stop offset="0%" style="stop-color:#96ccff"/>
      <stop offset="70%" style="stop-color:#74b9ff"/>
      <stop offset="100%" style="stop-color:#0984e3"/>
    </radialGradient>
  </defs>
  
  <!-- 배경 버블들 -->
  <circle cx="20" cy="20" r="12" fill="url(#bubble1)" opacity="0.9"/>
  <circle cx="50" cy="15" r="10" fill="url(#bubble2)" opacity="0.9"/>
  <circle cx="80" cy="22" r="11" fill="url(#bubble3)" opacity="0.9"/>
  <circle cx="35" cy="38" r="11" fill="url(#bubble4)" opacity="0.9"/>
  <circle cx="65" cy="35" r="12" fill="url(#bubble5)" opacity="0.9"/>
  <circle cx="20" cy="55" r="10" fill="url(#bubble6)" opacity="0.9"/>
  <circle cx="80" cy="50" r="11" fill="url(#bubble1)" opacity="0.9"/>
  
  <!-- 하이라이트 -->
  <circle cx="16" cy="16" r="3" fill="rgba(255,255,255,0.6)"/>
  <circle cx="46" cy="12" r="2.5" fill="rgba(255,255,255,0.6)"/>
  <circle cx="76" cy="18" r="2.8" fill="rgba(255,255,255,0.6)"/>
  <circle cx="31" cy="34" r="2.8" fill="rgba(255,255,255,0.6)"/>
  <circle cx="61" cy="31" r="3" fill="rgba(255,255,255,0.6)"/>
  <circle cx="16" cy="51" r="2.5" fill="rgba(255,255,255,0.6)"/>
  <circle cx="76" cy="46" r="2.8" fill="rgba(255,255,255,0.6)"/>
  
  <!-- 발사대 -->
  <rect x="42" y="80" width="16" height="15" rx="3" fill="#2d3436"/>
  <rect x="44" y="82" width="12" height="11" rx="2" fill="#636e72"/>
  
  <!-- 발사 버블 -->
  <circle cx="50" cy="70" r="10" fill="url(#bubble6)"/>
  <circle cx="47" cy="67" r="2.5" fill="rgba(255,255,255,0.6)"/>
  
  <!-- 조준선 -->
  <line x1="50" y1="60" x2="35" y2="40" stroke="rgba(255,255,255,0.4)" stroke-width="2" stroke-dasharray="4,3"/>
  
  <!-- 파티클 효과 -->
  <circle cx="30" cy="65" r="3" fill="#ffe66d" opacity="0.7"/>
  <circle cx="70" cy="60" r="2" fill="#fd79a8" opacity="0.6"/>
  <circle cx="45" cy="50" r="2.5" fill="#74b9ff" opacity="0.5"/>
</svg>
