<svg xmlns="http://www.w3.org/2000/svg" viewBox="0 0 100 100">
  <defs>
    <linearGradient id="bgGrad" x1="0%" y1="0%" x2="100%" y2="100%">
      <stop offset="0%" style="stop-color:#1a1a2e"/>
      <stop offset="100%" style="stop-color:#16213e"/>
    </linearGradient>
    <linearGradient id="targetGrad" x1="0%" y1="0%" x2="100%" y2="100%">
      <stop offset="0%" style="stop-color:#ff6b6b"/>
      <stop offset="100%" style="stop-color:#ee5a5a"/>
    </linearGradient>
  </defs>
  
  <!-- 배경 -->
  <circle cx="50" cy="50" r="48" fill="url(#bgGrad)"/>
  
  <!-- 타겟 보드 - 바깥 링 -->
  <circle cx="50" cy="50" r="38" fill="#ff6b6b" stroke="#fff" stroke-width="2"/>
  <circle cx="50" cy="50" r="30" fill="#fff"/>
  <circle cx="50" cy="50" r="24" fill="#ff6b6b"/>
  <circle cx="50" cy="50" r="16" fill="#fff"/>
  <circle cx="50" cy="50" r="10" fill="#ff6b6b"/>
  
  <!-- 조준선 -->
  <line x1="50" y1="8" x2="50" y2="20" stroke="#00ff88" stroke-width="2" stroke-linecap="round"/>
  <line x1="50" y1="80" x2="50" y2="92" stroke="#00ff88" stroke-width="2" stroke-linecap="round"/>
  <line x1="8" y1="50" x2="20" y2="50" stroke="#00ff88" stroke-width="2" stroke-linecap="round"/>
  <line x1="80" y1="50" x2="92" y2="50" stroke="#00ff88" stroke-width="2" stroke-linecap="round"/>
  
  <!-- 조준 원 -->
  <circle cx="50" cy="50" r="42" fill="none" stroke="#00ff88" stroke-width="1.5" stroke-dasharray="5,5" opacity="0.8"/>
  
  <!-- 귀여운 눈 -->
  <ellipse cx="40" cy="45" rx="6" ry="7" fill="#fff"/>
  <ellipse cx="60" cy="45" rx="6" ry="7" fill="#fff"/>
  <circle cx="41" cy="46" r="3" fill="#333"/>
  <circle cx="61" cy="46" r="3" fill="#333"/>
  <circle cx="42" cy="44" r="1" fill="#fff"/>
  <circle cx="62" cy="44" r="1" fill="#fff"/>
  
  <!-- 귀여운 입 -->
  <path d="M 43 58 Q 50 65 57 58" stroke="#333" stroke-width="2" fill="none" stroke-linecap="round"/>
  
  <!-- 볼터치 -->
  <ellipse cx="32" cy="55" rx="5" ry="3" fill="#ffb6c1" opacity="0.6"/>
  <ellipse cx="68" cy="55" rx="5" ry="3" fill="#ffb6c1" opacity="0.6"/>
  
  <!-- 반짝임 -->
  <circle cx="25" cy="25" r="2" fill="#ffd700" opacity="0.8"/>
  <circle cx="78" cy="22" r="1.5" fill="#ffd700" opacity="0.6"/>
  <circle cx="80" cy="75" r="1.5" fill="#00ff88" opacity="0.6"/>
</svg>
