<svg xmlns="http://www.w3.org/2000/svg" viewBox="0 0 100 100">
  <!-- 배경 보드 -->
  <rect x="15" y="15" width="70" height="70" rx="12" fill="#6366f1"/>
  <rect x="20" y="20" width="60" height="60" rx="8" fill="#8b5cf6"/>
  
  <!-- 그리드 라인 -->
  <line x1="40" y1="25" x2="40" y2="75" stroke="rgba(255,255,255,0.3)" stroke-width="3" stroke-linecap="round"/>
  <line x1="60" y1="25" x2="60" y2="75" stroke="rgba(255,255,255,0.3)" stroke-width="3" stroke-linecap="round"/>
  <line x1="25" y1="40" x2="75" y2="40" stroke="rgba(255,255,255,0.3)" stroke-width="3" stroke-linecap="round"/>
  <line x1="25" y1="60" x2="75" y2="60" stroke="rgba(255,255,255,0.3)" stroke-width="3" stroke-linecap="round"/>
  
  <!-- X 마크 (왼쪽 위) -->
  <g transform="translate(32.5, 32.5)">
    <line x1="-5" y1="-5" x2="5" y2="5" stroke="#ef4444" stroke-width="4" stroke-linecap="round"/>
    <line x1="5" y1="-5" x2="-5" y2="5" stroke="#ef4444" stroke-width="4" stroke-linecap="round"/>
  </g>
  
  <!-- O 마크 (가운데) -->
  <circle cx="50" cy="50" r="7" fill="none" stroke="#3b82f6" stroke-width="4"/>
  
  <!-- X 마크 (오른쪽 아래) -->
  <g transform="translate(67.5, 67.5)">
    <line x1="-5" y1="-5" x2="5" y2="5" stroke="#ef4444" stroke-width="4" stroke-linecap="round"/>
    <line x1="5" y1="-5" x2="-5" y2="5" stroke="#ef4444" stroke-width="4" stroke-linecap="round"/>
  </g>
  
  <!-- O 마크 (오른쪽 위 - 작은 눈) -->
  <circle cx="67.5" cy="32.5" r="4" fill="none" stroke="#3b82f6" stroke-width="3"/>
  
  <!-- 귀여운 표정 (보드에) -->
  <circle cx="42" cy="50" r="2.5" fill="white"/>
  <circle cx="58" cy="50" r="2.5" fill="white"/>
  <circle cx="42.5" cy="50.5" r="1.2" fill="#2c3e50"/>
  <circle cx="58.5" cy="50.5" r="1.2" fill="#2c3e50"/>
  
  <!-- 별 반짝임 -->
  <polygon points="10,15 11.5,19 16,19 12.5,22 14,26 10,23.5 6,26 7.5,22 4,19 8.5,19" fill="#fbbf24"/>
  <polygon points="90,75 91,78 94,78 91.5,80 92.5,83 90,81 87.5,83 88.5,80 86,78 89,78" fill="#fbbf24"/>
  
  <!-- 작은 하트 -->
  <path d="M85 20 C83 17, 79 17, 79 21 C79 24, 85 28, 85 28 C85 28, 91 24, 91 21 C91 17, 87 17, 85 20" fill="#ec4899" transform="scale(0.6) translate(55, 10)"/>
</svg>
