<svg xmlns="http://www.w3.org/2000/svg" viewBox="0 0 100 100">
  <!-- 몸통 (지뢰 모양) -->
  <circle cx="50" cy="55" r="30" fill="#2c3e50"/>
  <circle cx="50" cy="55" r="25" fill="#34495e"/>
  
  <!-- 지뢰 가시들 -->
  <rect x="48" y="20" width="4" height="15" fill="#2c3e50" rx="2"/>
  <rect x="48" y="75" width="4" height="15" fill="#2c3e50" rx="2"/>
  <rect x="15" y="53" width="15" height="4" fill="#2c3e50" rx="2"/>
  <rect x="70" y="53" width="15" height="4" fill="#2c3e50" rx="2"/>
  
  <!-- 대각선 가시 -->
  <rect x="25" y="30" width="4" height="12" fill="#2c3e50" rx="2" transform="rotate(-45 27 36)"/>
  <rect x="71" y="30" width="4" height="12" fill="#2c3e50" rx="2" transform="rotate(45 73 36)"/>
  <rect x="25" y="68" width="4" height="12" fill="#2c3e50" rx="2" transform="rotate(45 27 74)"/>
  <rect x="71" y="68" width="4" height="12" fill="#2c3e50" rx="2" transform="rotate(-45 73 74)"/>
  
  <!-- 얼굴 -->
  <circle cx="40" cy="50" r="5" fill="white"/>
  <circle cx="60" cy="50" r="5" fill="white"/>
  <circle cx="41" cy="51" r="2.5" fill="#2c3e50"/>
  <circle cx="61" cy="51" r="2.5" fill="#2c3e50"/>
  
  <!-- 깃발 들고 있는 손 -->
  <rect x="72" y="25" width="3" height="20" fill="#8B4513"/>
  <polygon points="75,25 75,38 90,31.5" fill="#e74c3c"/>
  
  <!-- 웃는 입 -->
  <path d="M 42 62 Q 50 70 58 62" stroke="#2c3e50" stroke-width="3" fill="none" stroke-linecap="round"/>
  
  <!-- 반짝임 -->
  <circle cx="35" cy="45" r="2" fill="rgba(255,255,255,0.6)"/>
</svg>